<svg width="256" height="256" viewBox="0 0 256 256" xmlns="http://www.w3.org/2000/svg" role="img" aria-label="StudyShare favicon mark">
  <circle
    cx="128"
    cy="128"
    r="88"
    fill="none"
    stroke="#3B82F6"
    stroke-width="14"
    stroke-linecap="round"
    stroke-dasharray="30 39"
    transform="rotate(-12 128 128)"
  />

  <g fill="#3B82F6">
    <rect x="121" y="42" width="14" height="36" rx="7"/>
    <rect x="121" y="42" width="14" height="36" rx="7" transform="rotate(45 128 128)"/>
    <rect x="121" y="42" width="14" height="36" rx="7" transform="rotate(90 128 128)"/>
    <rect x="121" y="42" width="14" height="36" rx="7" transform="rotate(135 128 128)"/>
    <rect x="121" y="42" width="14" height="36" rx="7" transform="rotate(180 128 128)"/>
    <rect x="121" y="42" width="14" height="36" rx="7" transform="rotate(225 128 128)"/>
    <rect x="121" y="42" width="14" height="36" rx="7" transform="rotate(270 128 128)"/>
    <rect x="121" y="42" width="14" height="36" rx="7" transform="rotate(315 128 128)"/>
  </g>
</svg>
